HIERARCHY
ROOT Pelvis
{
	OFFSET 0.000000 0.000000 0.000000
	CHANNELS 6 Xposition Yposition Zposition Xrotation Yrotation Zrotation
	JOINT LeftUpLeg_virtual
	{
		OFFSET 0.000000 0.000000 0.000000
		CHANNELS 3 Xrotation Yrotation Zrotation
		JOINT LeftUpLeg
		{
			OFFSET 18.735201 -5.666702 -4.541200
			CHANNELS 3 Xrotation Yrotation Zrotation
			JOINT LeftLeg
			{
				OFFSET -0.021200 -31.938179 0.493100
				CHANNELS 3 Xrotation Yrotation Zrotation
				JOINT LeftFoot
				{
					OFFSET 0.021200 -31.938179 -4.336299
					CHANNELS 3 Xrotation Yrotation Zrotation
					JOINT LeftToeBase
					{
						OFFSET 0.943001 -26.722000 15.023500
						CHANNELS 3 Xrotation Yrotation Zrotation
						End Site
						{
							OFFSET 0 0 0
						}
					}
				}
			}
		}
	}
	JOINT RightUpLeg_virtual
	{
		OFFSET 0.000000 0.000000 0.000000
		CHANNELS 3 Xrotation Yrotation Zrotation
		JOINT RightUpLeg
		{
			OFFSET -18.735201 -5.666702 -4.541200
			CHANNELS 3 Xrotation Yrotation Zrotation
			JOINT RightLeg
			{
				OFFSET 0.018946 -31.938133 0.493100
				CHANNELS 3 Xrotation Yrotation Zrotation
				JOINT RightFoot
				{
					OFFSET -0.018946 -31.938126 -4.336299
					CHANNELS 3 Xrotation Yrotation Zrotation
					JOINT RightToeBase
					{
						OFFSET -0.943001 -26.722004 15.023500
						CHANNELS 3 Xrotation Yrotation Zrotation
						End Site
						{
							OFFSET 0 0 0
						}
					}
				}
			}
		}
	}
	JOINT Hips_virtual
	{
		OFFSET 0.000000 0.000000 0.000000
		CHANNELS 3 Xrotation Yrotation Zrotation
		JOINT Hips
		{
			OFFSET -0.000000 -0.000000 -0.000000
			CHANNELS 3 Xrotation Yrotation Zrotation
			JOINT Spine
			{
				OFFSET 0.000000 10.199997 -0.299500
				CHANNELS 3 Xrotation Yrotation Zrotation
				JOINT Spine1
				{
					OFFSET 0.000000 11.900002 -1.516600
					CHANNELS 3 Xrotation Yrotation Zrotation
					JOINT Spine2
					{
						OFFSET 0.000000 13.600006 -2.842500
						CHANNELS 3 Xrotation Yrotation Zrotation
						JOINT Neck_virtual
						{
							OFFSET 0.000000 0.000000 0.000000
							CHANNELS 3 Xrotation Yrotation Zrotation
							JOINT Neck
							{
								OFFSET 0.000000 9.624100 -2.890100
								CHANNELS 3 Xrotation Yrotation Zrotation
								JOINT Head
								{
									OFFSET 0.000000 14.068802 -1.351900
									CHANNELS 3 Xrotation Yrotation Zrotation
									End Site
									{
										OFFSET 0 0 0
									}
								}
							}
						}
						JOINT LeftShoulder_virtual
						{
							OFFSET 0.000000 0.000000 0.000000
							CHANNELS 3 Xrotation Yrotation Zrotation
							JOINT LeftShoulder
							{
								OFFSET 15.263000 10.923401 -0.547700
								CHANNELS 3 Xrotation Yrotation Zrotation
								JOINT LeftArm
								{
									OFFSET 25.438599 -2.830597 -13.032500
									CHANNELS 3 Xrotation Yrotation Zrotation
									JOINT LeftForeArm
									{
										OFFSET 29.960503 0.000000 0.000000
										CHANNELS 3 Xrotation Yrotation Zrotation
										JOINT LeftHand
										{
											OFFSET 27.849251 0.000000 0.000000
											CHANNELS 3 Xrotation Yrotation Zrotation
											End Site
											{
												OFFSET 0 0 0
											}
										}
									}
								}
							}
						}
						JOINT RightShoulder_virtual
						{
							OFFSET 0.000000 0.000000 0.000000
							CHANNELS 3 Xrotation Yrotation Zrotation
							JOINT RightShoulder
							{
								OFFSET -15.263000 10.923401 -0.547700
								CHANNELS 3 Xrotation Yrotation Zrotation
								JOINT RightArm
								{
									OFFSET -25.438599 -2.830597 -13.032500
									CHANNELS 3 Xrotation Yrotation Zrotation
									JOINT RightForeArm
									{
										OFFSET -29.960503 0.000000 0.000000
										CHANNELS 3 Xrotation Yrotation Zrotation
										JOINT RightHand
										{
											OFFSET -27.849251 0.000000 0.000000
											CHANNELS 3 Xrotation Yrotation Zrotation
											End Site
											{
												OFFSET 0 0 0
											}
										}
									}
								}
							}
						}
					}
				}
			}
		}
	}
}
MOTION
Frames: 11
Frame Time: 0.03333333
-6.761513 89.984108 10.499561 0.000000 0.000000 0.000000 12.637552 -3.093918 3.213560 -23.765256 3.651687 5.825500 25.910232 0.070473 -5.372126 -10.763750 -6.282940 -0.190115 0.000000 0.000000 0.000000 12.414053 -2.100506 3.294312 -21.747510 -13.041760 -8.853024 32.501476 -9.581792 7.598980 -17.396331 -10.088363 -11.994388 0.000000 0.000000 0.000000 12.501266 -2.486748 3.562634 -0.795848 -0.057348 -0.068127 22.489328 -4.362845 1.129506 -0.909279 1.878679 -1.037845 0.000000 0.000000 0.000000 -8.728890 -0.716219 -0.129664 9.361520 5.074094 0.587810 0.000000 0.000000 0.000000 -7.792406 -0.077135 1.418577 7.695608 -23.739893 -21.187880 15.377362 7.747590 -16.891498 -29.024872 -56.857568 -35.416385 0.000000 0.000000 0.000000 -6.921903 -0.324283 0.086623 -4.832577 11.892176 8.981269 19.311911 -1.703467 17.075232 -12.155199 40.808925 2.331881 0.000000 0.000000 0.000000 
-6.694989 90.021606 10.649349 0.000000 0.000000 0.000000 12.759444 -3.227629 3.304098 -23.381186 3.768869 5.890777 25.527718 -0.270957 -5.388054 -10.955953 -6.557080 -0.912254 0.000000 0.000000 0.000000 12.502100 -2.231793 3.405500 -21.671152 -12.796481 -9.180922 32.693616 -9.595606 7.555217 -17.650722 -10.035835 -11.757272 0.000000 0.000000 0.000000 12.578348 -2.554039 3.617016 -0.786679 -0.054414 -0.058871 21.859631 -4.251415 1.503357 -1.097101 1.675483 -0.892150 0.000000 0.000000 0.000000 -8.918876 -0.999473 0.046136 9.341919 4.861022 0.640565 0.000000 0.000000 0.000000 -8.225599 -0.348464 1.466931 7.397833 -23.960106 -21.641678 17.265183 9.533934 -17.760782 -28.399049 -57.283448 -35.001864 0.000000 0.000000 0.000000 -7.101865 -0.627008 0.220299 -5.040663 12.750630 8.357834 20.919804 -3.142572 18.191656 -11.046433 41.565482 0.424588 0.000000 0.000000 0.000000 
-6.636055 90.022339 10.750595 0.000000 0.000000 0.000000 12.882270 -3.365579 3.400448 -23.120170 3.970213 6.003881 25.280694 -0.604350 -5.460273 -11.144492 -6.770549 -1.699220 0.000000 0.000000 0.000000 12.621340 -2.396121 3.531944 -21.669463 -12.657833 -9.457742 32.951285 -9.693404 7.498514 -18.203173 -9.994463 -11.662588 0.000000 0.000000 0.000000 12.680314 -2.627404 3.707403 -0.775290 -0.051533 -0.045268 21.282728 -4.140603 1.765489 -1.239446 1.514443 -0.740457 0.000000 0.000000 0.000000 -9.023059 -1.250175 0.226544 9.209217 4.611192 0.688502 0.000000 0.000000 0.000000 -8.613444 -0.584374 1.532940 7.142567 -23.933864 -21.966124 18.794766 10.956919 -19.183428 -28.055309 -58.187447 -34.698816 0.000000 0.000000 0.000000 -7.210927 -0.900749 0.344315 -5.238660 13.465326 7.995314 21.791633 -3.731913 19.622363 -9.916369 41.715698 -1.486688 0.000000 0.000000 0.000000 
-6.602488 90.001343 10.803719 0.000000 0.000000 0.000000 13.015253 -3.511163 3.496456 -22.932968 4.190013 6.101056 25.144617 -0.916572 -5.548146 -11.442017 -6.887416 -2.425538 0.000000 0.000000 0.000000 12.769271 -2.573810 3.652282 -21.694604 -12.585881 -9.613937 33.188603 -9.868941 7.427534 -18.921466 -9.972704 -11.665782 0.000000 0.000000 0.000000 12.819988 -2.705792 3.815873 -0.765367 -0.049862 -0.035493 20.774632 -4.031824 1.934900 -1.337687 1.408564 -0.596116 0.000000 0.000000 0.000000 -9.060791 -1.448937 0.390329 8.972327 4.341530 0.727067 0.000000 0.000000 0.000000 -8.933924 -0.760523 1.612490 6.942653 -23.660525 -22.157974 19.914783 11.880742 -20.903541 -27.575244 -59.179593 -34.085161 0.000000 0.000000 0.000000 -7.270196 -1.123045 0.452175 -5.437735 13.926854 7.931847 21.893777 -3.436381 21.241987 -8.861671 41.016396 -3.304400 0.000000 0.000000 0.000000 
-6.608758 89.957565 10.792767 0.000000 0.000000 0.000000 13.167427 -3.620128 3.587163 -22.722651 4.339545 6.118687 24.914396 -1.238925 -5.616598 -11.979168 -6.944630 -3.062064 0.000000 0.000000 0.000000 12.943681 -2.727916 3.752883 -21.732277 -12.520672 -9.642712 33.363999 -10.085883 7.326748 -19.643151 -9.973672 -11.754695 0.000000 0.000000 0.000000 12.993730 -2.803166 3.926405 -0.753793 -0.050268 -0.034864 20.346381 -3.924006 2.040098 -1.403167 1.378075 -0.455733 0.000000 0.000000 0.000000 -9.052540 -1.573549 0.529426 8.656732 4.067668 0.760323 0.000000 0.000000 0.000000 -9.170756 -0.854653 1.730687 6.807754 -23.169250 -22.260370 20.653758 12.140780 -22.717032 -26.748008 -60.025629 -32.987341 0.000000 0.000000 0.000000 -7.297490 -1.271982 0.552181 -5.649339 14.168243 8.235799 21.389192 -2.500776 22.844543 -7.996457 39.652322 -4.868968 0.000000 0.000000 0.000000 
-6.654907 89.908195 10.738876 0.000000 0.000000 0.000000 13.333077 -3.658213 3.678497 -22.411305 4.437577 6.041764 24.481922 -1.567737 -5.668536 -12.636466 -6.931536 -3.564665 0.000000 0.000000 0.000000 13.126702 -2.805017 3.844042 -21.760706 -12.425764 -9.581285 33.526950 -10.321119 7.197041 -20.339147 -10.000972 -11.939712 0.000000 0.000000 0.000000 13.195883 -2.866960 4.043235 -0.743912 -0.054672 -0.045463 19.969900 -3.801700 2.052258 -1.426273 1.448897 -0.310473 0.000000 0.000000 0.000000 -8.990194 -1.608317 0.652016 8.295558 3.803179 0.790966 0.000000 0.000000 0.000000 -9.318539 -0.850795 1.899610 6.729728 -22.533761 -22.312483 21.052154 11.698171 -24.540948 -25.620043 -60.732369 -31.523017 0.000000 0.000000 0.000000 -7.288590 -1.328184 0.653319 -5.876700 14.246353 8.978271 20.447568 -1.232706 24.244585 -7.367530 38.051827 -6.050645 0.000000 0.000000 0.000000 
-6.734831 89.852325 10.671326 0.000000 0.000000 0.000000 13.483139 -3.612720 3.781476 -21.988790 4.618791 5.905617 23.872192 -1.854332 -5.748649 -13.207876 -6.818850 -3.870627 0.000000 0.000000 0.000000 13.279999 -2.778785 3.947679 -21.744519 -12.295409 -9.499711 33.699491 -10.561393 7.058726 -21.006201 -10.061408 -12.208119 0.000000 0.000000 0.000000 13.394968 -2.863474 4.174306 -0.736516 -0.060654 -0.060555 19.614118 -3.649952 1.939643 -1.391858 1.637477 -0.159951 0.000000 0.000000 0.000000 -8.870881 -1.547171 0.774734 7.928293 3.556555 0.819463 0.000000 0.000000 0.000000 -9.377649 -0.744973 2.128840 6.695386 -21.845648 -22.331787 21.146945 10.587553 -26.455570 -24.196509 -61.226649 -29.770500 0.000000 0.000000 0.000000 -7.247912 -1.277255 0.773559 -6.100988 14.251576 10.134098 19.172303 0.150424 25.444775 -6.961515 36.543206 -6.835518 0.000000 0.000000 0.000000 
-6.827763 89.780701 10.582542 0.000000 0.000000 0.000000 13.582124 -3.491938 3.906266 -21.517710 4.917632 5.721447 23.155627 -2.072231 -5.877238 -13.621614 -6.613628 -3.956502 0.000000 0.000000 0.000000 13.387761 -2.669388 4.078615 -21.713127 -12.143037 -9.482306 33.898331 -10.784248 6.924216 -21.651092 -10.146480 -12.513905 0.000000 0.000000 0.000000 13.561792 -2.802447 4.337529 -0.734713 -0.065767 -0.068619 19.262231 -3.470878 1.712782 -1.295102 1.928140 -0.002730 0.000000 0.000000 0.000000 -8.704401 -1.402763 0.899571 7.574142 3.337734 0.844471 0.000000 0.000000 0.000000 -9.355733 -0.548558 2.400250 6.700673 -21.162470 -22.312326 20.870302 8.971324 -28.395910 -22.597017 -61.454163 -27.859138 0.000000 0.000000 0.000000 -7.156438 -1.127914 0.914312 -6.300195 14.251591 11.493543 17.567779 1.772735 26.606239 -6.735831 35.135876 -7.297975 0.000000 0.000000 0.000000 
-6.914759 89.699959 10.503815 0.000000 0.000000 0.000000 13.607519 -3.332852 4.053955 -21.012198 5.258969 5.480378 22.456784 -2.261922 -6.021558 -13.947729 -6.332808 -3.829288 0.000000 0.000000 0.000000 13.437215 -2.517710 4.235873 -21.636571 -11.966754 -9.544494 34.105648 -10.939900 6.802071 -22.243863 -10.238466 -12.744430 0.000000 0.000000 0.000000 13.657803 -2.684755 4.525644 -0.736611 -0.068015 -0.065555 18.859961 -3.274160 1.431334 -1.136805 2.285694 0.138626 0.000000 0.000000 0.000000 -8.524303 -1.200671 1.020685 7.247087 3.157811 0.868699 0.000000 0.000000 0.000000 -9.257451 -0.292151 2.669591 6.729286 -20.542832 -22.224986 20.162037 7.043153 -30.311516 -20.894042 -61.308393 -25.862971 0.000000 0.000000 0.000000 -6.998629 -0.909541 1.068722 -6.436649 14.271640 12.793020 15.632519 3.777975 27.976361 -6.643515 33.783991 -7.519267 0.000000 0.000000 0.000000 
-6.991161 89.616074 10.456963 0.000000 0.000000 0.000000 13.553595 -3.179706 4.213996 -20.429010 5.571728 5.188019 21.789046 -2.468163 -6.156029 -14.282837 -6.034223 -3.598531 0.000000 0.000000 0.000000 13.422170 -2.367143 4.398979 -21.473724 -11.766738 -9.660583 34.282485 -10.995699 6.705022 -22.721695 -10.327047 -12.801085 0.000000 0.000000 0.000000 13.652580 -2.542424 4.706103 -0.741351 -0.066611 -0.051993 18.381566 -3.080063 1.188423 -0.931640 2.660252 0.250694 0.000000 0.000000 0.000000 -8.351391 -0.976072 1.127386 6.960098 3.018017 0.898651 0.000000 0.000000 0.000000 -9.103714 -0.016661 2.889014 6.767588 -20.034758 -22.074063 19.030461 4.900372 -32.222244 -19.192704 -60.729165 -23.891836 0.000000 0.000000 0.000000 -6.803324 -0.654932 1.219207 -6.484049 14.365249 13.852950 13.413844 6.303036 29.706135 -6.669645 32.416891 -7.560297 0.000000 0.000000 0.000000 
-7.043517 89.546539 10.435707 0.000000 0.000000 0.000000 13.430859 -3.040565 4.367723 -19.734787 5.827018 4.884369 21.079839 -2.703431 -6.286593 -14.704327 -5.796737 -3.425340 0.000000 0.000000 0.000000 13.343246 -2.236028 4.535997 -21.246114 -11.606269 -9.850808 34.436813 -10.950940 6.647307 -23.095311 -10.410120 -12.680264 0.000000 0.000000 0.000000 13.548291 -2.403452 4.848184 -0.745372 -0.064919 -0.037656 17.784918 -2.917125 1.063743 -0.705930 3.005885 0.319407 0.000000 0.000000 0.000000 -8.199832 -0.754057 1.215375 6.722740 2.920984 0.940431 0.000000 0.000000 0.000000 -8.920809 0.243121 3.015203 6.813290 -19.663445 -21.854584 17.553907 2.640747 -34.179240 -17.612005 -59.798436 -22.090317 0.000000 0.000000 0.000000 -6.589180 -0.403341 1.346808 -6.432506 14.572205 14.583419 11.114868 9.306891 31.700872 -6.764367 31.130465 -7.435815 0.000000 0.000000 0.000000 
